<?xml version="1.0" encoding="UTF-8"?>
<svg width="18px" height="18px" viewBox="0 0 18 18" version="1.1" xmlns="http://www.w3.org/2000/svg">
    <g id="search" stroke="none" stroke-width="1" fill="none" fill-rule="evenodd">
        <path d="M13.3101902,11.9120634 L18,16.6018732 L16.6018732,18 L11.9120634,13.3101902 C10.6646096,14.2632551 9.10576045,14.8293742 7.41468711,14.8293742 C3.3196685,14.8293742 0,11.5097057 0,7.41468711 C0,3.3196685 3.3196685,0 7.41468711,0 C11.5097057,0 14.8293742,3.3196685 14.8293742,7.41468711 C14.8293742,9.10576045 14.2632551,10.6646096 13.3101975,11.9120538 L13.3101902,11.9120634 Z M7.41468711,12.8521243 C10.4177008,12.8521243 12.8521243,10.4177008 12.8521243,7.41468711 C12.8521243,4.41167346 10.4177008,1.9772499 7.41468711,1.9772499 C4.41167346,1.9772499 1.9772499,4.41167346 1.9772499,7.41468711 C1.9772499,10.4177008 4.41167346,12.8521243 7.41468711,12.8521243 Z" id="Shape" fill="#000000" fill-rule="nonzero"></path>
    </g>
</svg>
