<?xml version="1.0" encoding="UTF-8"?>
<svg width="20px" height="29px" viewBox="0 0 20 29" version="1.1" xmlns="http://www.w3.org/2000/svg" xmlns:xlink="http://www.w3.org/1999/xlink">
    <g id="Page-1" stroke="none" stroke-width="1" fill="none" fill-rule="evenodd">
        <path d="M13,17.418483 C15.9318303,16.2317082 18,13.3573776 18,10 C18,5.581722 14.418278,2 10,2 C5.581722,2 2,5.581722 2,10 C2,13.3573776 4.06816966,16.2317082 7,17.418483 L7,19.5421977 C2.94289305,18.2679341 0,14.4776418 0,10 C0,4.4771525 4.4771525,0 10,0 C15.5228475,0 20,4.4771525 20,10 C20,14.4776418 17.057107,18.2679341 13,19.5421977 L13,17.418483 Z M11,25 L14.5,21.5 L16,23 L10,29 L4,23 L5.5,21.5 L9,25 L9,10 L11,10 L11,25 Z" id="Shape" fill="#979797" fill-rule="nonzero"></path>
    </g>
</svg>
